<svg width="28" height="28" viewBox="0 0 28 28" fill="none" xmlns="http://www.w3.org/2000/svg">
<path d="M20.5779 16.3553C20.2901 16.6341 20.1579 17.0375 20.2235 17.433L21.2112 22.8997C21.2946 23.363 21.099 23.8319 20.7112 24.0997C20.3312 24.3775 19.8257 24.4108 19.4112 24.1886L14.4901 21.6219C14.319 21.5308 14.129 21.4819 13.9346 21.4764H13.6335C13.529 21.4919 13.4268 21.5253 13.3335 21.5764L8.41123 24.1553C8.1679 24.2775 7.89234 24.3208 7.62234 24.2775C6.96456 24.153 6.52568 23.5264 6.63345 22.8653L7.62234 17.3986C7.6879 16.9997 7.55568 16.5941 7.2679 16.3108L3.25568 12.4219C2.92012 12.0964 2.80345 11.6075 2.95679 11.1664C3.10568 10.7264 3.48568 10.4053 3.94457 10.333L9.46679 9.53192C9.88679 9.48859 10.2557 9.23303 10.4446 8.85526L12.8779 3.86637C12.9357 3.75526 13.0101 3.65303 13.1001 3.56637L13.2001 3.48859C13.2523 3.43081 13.3123 3.38303 13.379 3.34415L13.5001 3.2997L13.689 3.22192H14.1568C14.5746 3.26526 14.9423 3.51526 15.1346 3.88859L17.6001 8.85526C17.7779 9.21859 18.1235 9.47081 18.5223 9.53192L24.0446 10.333C24.5112 10.3997 24.9012 10.7219 25.0557 11.1664C25.2012 11.6119 25.0757 12.1008 24.7335 12.4219L20.5779 16.3553Z" fill="#DBB800"/>
</svg>
